<svg width="24" height="24" viewBox="0 0 24 24" fill="none" xmlns="http://www.w3.org/2000/svg">
<path d="M7 6V2C7 1.44772 7.44772 1 8 1C8.55228 1 9 1.44772 9 2V6C9 6.55228 8.55228 7 8 7C7.44772 7 7 6.55228 7 6Z" fill="#64748B"/>
<path d="M15 6V2C15 1.44772 15.4477 1 16 1C16.5523 1 17 1.44772 17 2V6C17 6.55228 16.5523 7 16 7C15.4477 7 15 6.55228 15 6Z" fill="#64748B"/>
<path d="M20 6C20 5.44772 19.5523 5 19 5H5C4.44772 5 4 5.44772 4 6V20C4 20.5523 4.44772 21 5 21H19C19.5523 21 20 20.5523 20 20V6ZM22 20C22 21.6569 20.6569 23 19 23H5C3.34315 23 2 21.6569 2 20V6C2 4.34315 3.34315 3 5 3H19C20.6569 3 22 4.34315 22 6V20Z" fill="#64748B"/>
<path d="M21 9C21.5523 9 22 9.44772 22 10C22 10.5523 21.5523 11 21 11H3C2.44772 11 2 10.5523 2 10C2 9.44772 2.44772 9 3 9H21Z" fill="#64748B"/>
<path d="M13.3691 13.2246C13.7619 12.9043 14.3409 12.9269 14.707 13.293C15.0731 13.6591 15.0957 14.2381 14.7754 14.6309L14.707 14.707L10.707 18.707C10.3165 19.0976 9.68349 19.0976 9.29297 18.707C8.90244 18.3165 8.90244 17.6835 9.29297 17.293L13.293 13.293L13.3691 13.2246Z" fill="#64748B"/>
<path d="M9.29297 13.293C9.65908 12.9269 10.2381 12.9043 10.6309 13.2246L10.707 13.293L14.707 17.293L14.7754 17.3691C15.0957 17.7619 15.0731 18.3409 14.707 18.707C14.3409 19.0731 13.7619 19.0957 13.3691 18.7754L13.293 18.707L9.29297 14.707L9.22461 14.6309C8.90426 14.2381 8.92685 13.6591 9.29297 13.293Z" fill="#64748B"/>
</svg>
